<?xml version="1.0" encoding="UTF-8"?>
<!DOCTYPE svg PUBLIC "-//W3C//DTD SVG 1.1//EN" "http://www.w3.org/Graphics/SVG/1.1/DTD/svg11.dtd">
<svg xmlns="http://www.w3.org/2000/svg" version="1.1" width="400px" height="400px" style="shape-rendering:geometricPrecision; text-rendering:geometricPrecision; image-rendering:optimizeQuality; fill-rule:evenodd; clip-rule:evenodd" xmlns:xlink="http://www.w3.org/1999/xlink">
<g><path style="opacity:0.995" fill="#f8cd43" d="M 273.5,233.5 C 269.612,237.139 269.612,240.972 273.5,245C 275.066,245.765 276.399,245.598 277.5,244.5C 283.593,244.139 289.593,244.639 295.5,246C 298.233,247.298 299.566,249.465 299.5,252.5C 296.967,260.33 295.134,268.33 294,276.5C 292.039,279.463 289.706,282.129 287,284.5C 282.129,295.546 281.295,306.879 284.5,318.5C 283.008,323.398 284.342,327.564 288.5,331C 289.749,331.74 290.749,331.573 291.5,330.5C 301.413,334.732 303.913,341.732 299,351.5C 297.2,353.317 295.034,354.484 292.5,355C 286.833,355.333 281.167,355.667 275.5,356C 265.991,359.502 256.324,360.835 246.5,360C 243.382,358.941 240.382,357.608 237.5,356C 230.713,348.391 223.713,341.058 216.5,334C 196.249,322.621 178.083,325.455 162,342.5C 159.953,345.964 158.287,349.63 157,353.5C 150.8,357.931 145.134,357.264 140,351.5C 138.593,346.603 136.427,342.103 133.5,338C 126.983,335.875 120.317,334.208 113.5,333C 107.779,328.279 101.779,323.946 95.5,320C 88.8966,318.837 82.2299,318.17 75.5,318C 73.0506,317.275 70.7173,316.275 68.5,315C 61.629,306.462 53.7957,298.962 45,292.5C 42.6966,287.962 43.1966,283.795 46.5,280C 54.8919,276.275 61.3919,270.441 66,262.5C 73.3289,250.866 79.3289,238.533 84,225.5C 85.4705,224.733 86.9705,224.067 88.5,223.5C 88.9704,224.693 89.9704,225.36 91.5,225.5C 96.3207,224.569 97.654,221.903 95.5,217.5C 93.9745,205.902 93.1412,194.235 93,182.5C 90.0974,176.593 86.7641,170.927 83,165.5C 82.1504,160.979 82.6504,156.645 84.5,152.5C 88.0151,149.393 88.3484,145.893 85.5,142C 85.8333,141.667 86.1667,141.333 86.5,141C 85.255,140.209 83.9217,139.709 82.5,139.5C 80.2794,136.057 79.9461,132.39 81.5,128.5C 84.2436,127.928 85.0769,126.262 84,123.5C 82.871,121.859 81.371,120.859 79.5,120.5C 75.0493,117.889 70.7159,115.056 66.5,112C 63.1667,108 59.8333,104 56.5,100C 51.3963,97.2266 46.563,94.0599 42,90.5C 41.2967,88.0709 41.4634,85.7375 42.5,83.5C 44.1172,84.038 45.7839,84.3713 47.5,84.5C 47.678,80.8776 47.0114,77.5443 45.5,74.5C 43.2561,69.9246 44.5894,67.5913 49.5,67.5C 59.0565,69.6272 68.7231,71.1272 78.5,72C 83.5226,74.1948 86.5226,78.0282 87.5,83.5C 87.7344,89.1928 90.401,90.8594 95.5,88.5C 100.418,88.3838 105.418,88.8838 110.5,90C 112.727,90.941 114.727,92.1077 116.5,93.5C 121.303,100.232 123.97,99.2322 124.5,90.5C 124.493,88.6307 124.16,86.964 123.5,85.5C 124.342,77.7862 125.676,70.1196 127.5,62.5C 130.313,62.0246 132.313,63.0246 133.5,65.5C 133.808,69.0091 135.808,70.6757 139.5,70.5C 147.075,72.2874 153.409,76.1207 158.5,82C 159.901,82.4101 161.234,82.9101 162.5,83.5C 163.601,84.5983 164.934,84.765 166.5,84C 168.426,83.5776 169.426,82.4109 169.5,80.5C 170.477,75.0282 173.477,71.1948 178.5,69C 185.5,68.6667 192.5,68.3333 199.5,68C 207.437,67.1137 214.27,63.947 220,58.5C 222.333,52.8333 224.667,47.1667 227,41.5C 228.167,40.3333 229.333,39.1667 230.5,38C 234.167,37.3333 237.833,37.3333 241.5,38C 244.343,40.511 246.843,43.3443 249,46.5C 254.731,57.6283 260.731,68.6283 267,79.5C 271.925,86.4267 278.092,91.9267 285.5,96C 292.561,104.06 300.561,111.06 309.5,117C 314.833,123.667 320.167,130.333 325.5,137C 332.047,139.305 338.714,141.305 345.5,143C 349.419,144.54 352.919,146.707 356,149.5C 356.667,152.5 356.667,155.5 356,158.5C 348.411,167.345 342.078,177.012 337,187.5C 331.108,194.362 323.608,197.862 314.5,198C 312.051,198.725 309.717,199.725 307.5,201C 301.424,206.405 296.091,212.405 291.5,219C 284.842,223.144 278.842,227.977 273.5,233.5 Z"/></g>
<g><path style="opacity:0.11" fill="#f8ebcb" d="M 133.5,65.5 C 135.5,67.1667 137.5,68.8333 139.5,70.5C 135.808,70.6757 133.808,69.0091 133.5,65.5 Z"/></g>
<g><path style="opacity:0.318" fill="#fdf5dd" d="M 45.5,74.5 C 47.0114,77.5443 47.678,80.8776 47.5,84.5C 45.7839,84.3713 44.1172,84.038 42.5,83.5C 44.8711,81.0034 45.8711,78.0034 45.5,74.5 Z"/></g>
<g><path style="opacity:1" fill="#c87d28" d="M 204.5,75.5 C 213.47,74.6384 217.637,78.6384 217,87.5C 212.263,95.1714 206.93,95.5047 201,88.5C 200.333,85.8333 200.333,83.1667 201,80.5C 202.669,79.1537 203.836,77.487 204.5,75.5 Z"/></g>
<g><path style="opacity:0.271" fill="#fdf9e8" d="M 169.5,80.5 C 169.426,82.4109 168.426,83.5776 166.5,84C 164.934,84.765 163.601,84.5983 162.5,83.5C 165.206,83.3122 167.539,82.3122 169.5,80.5 Z"/></g>
<g><path style="opacity:1" fill="#cd7f29" d="M 69.5,82.5 C 80.3882,82.2663 82.3882,86.433 75.5,95C 68.1441,95.3665 65.3107,91.8665 67,84.5C 67.9947,83.9341 68.828,83.2674 69.5,82.5 Z"/></g>
<g><path style="opacity:0.329" fill="#fef3dc" d="M 87.5,83.5 C 89.154,86.6663 91.8206,88.333 95.5,88.5C 90.401,90.8594 87.7344,89.1928 87.5,83.5 Z"/></g>
<g><path style="opacity:0.462" fill="#fff7dc" d="M 123.5,85.5 C 124.16,86.964 124.493,88.6307 124.5,90.5C 123.97,99.2322 121.303,100.232 116.5,93.5C 119.244,95.0579 121.41,94.3912 123,91.5C 123.495,89.5273 123.662,87.5273 123.5,85.5 Z"/></g>
<g><path style="opacity:1" fill="#a46720" d="M 242.5,106.5 C 251.506,105.025 256.006,108.692 256,117.5C 251.072,125.893 245.406,126.56 239,119.5C 237.539,114.326 238.706,109.993 242.5,106.5 Z"/></g>
<g><path style="opacity:1" fill="#d57f2a" d="M 244.5,107.5 C 250.894,106.727 253.894,109.56 253.5,116C 253.896,119.939 252.229,121.272 248.5,120C 243.52,117.113 242.187,112.946 244.5,107.5 Z"/></g>
<g><path style="opacity:0.073" fill="#fef8e3" d="M 79.5,120.5 C 81.371,120.859 82.871,121.859 84,123.5C 85.0769,126.262 84.2436,127.928 81.5,128.5C 81.8928,125.487 81.2261,122.82 79.5,120.5 Z"/></g>
<g><path style="opacity:1" fill="#bf8028" d="M 104.5,125.5 C 109.677,124.703 114.177,126.036 118,129.5C 118.667,132.167 118.667,134.833 118,137.5C 112.285,145.415 106.618,145.415 101,137.5C 100.057,132.835 101.223,128.835 104.5,125.5 Z"/></g>
<g><path style="opacity:1" fill="#d9812b" d="M 106.5,127.5 C 114.665,126.996 117.665,130.662 115.5,138.5C 108.786,141.279 104.786,139.113 103.5,132C 104.008,130.107 105.008,128.607 106.5,127.5 Z"/></g>
<g><path style="opacity:1" fill="#d5812b" d="M 289.5,132.5 C 291.693,139.912 290.026,146.245 284.5,151.5C 281.348,152.809 278.348,152.476 275.5,150.5C 273.183,147.683 270.683,145.016 268,142.5C 266.642,136.969 267.809,132.135 271.5,128C 270.365,127.251 269.365,127.417 268.5,128.5C 267.145,130.521 265.479,132.188 263.5,133.5C 267.912,125.413 274.579,122.913 283.5,126C 286.409,127.406 288.409,129.572 289.5,132.5 Z"/></g>
<g><path style="opacity:1" fill="#a3651f" d="M 289.5,132.5 C 292.392,138.613 291.892,144.613 288,150.5C 279.741,157.595 272.075,156.928 265,148.5C 262.44,143.687 261.94,138.687 263.5,133.5C 265.479,132.188 267.145,130.521 268.5,128.5C 269.365,127.417 270.365,127.251 271.5,128C 267.809,132.135 266.642,136.969 268,142.5C 270.683,145.016 273.183,147.683 275.5,150.5C 278.348,152.476 281.348,152.809 284.5,151.5C 290.026,146.245 291.693,139.912 289.5,132.5 Z"/></g>
<g><path style="opacity:1" fill="#97601e" d="M 181.5,124.5 C 189.111,122.696 194.944,125.029 199,131.5C 200.434,143.208 195.267,148.375 183.5,147C 177.231,144.233 174.731,139.4 176,132.5C 177.243,129.424 179.077,126.757 181.5,124.5 Z"/></g>
<g><path style="opacity:1" fill="#d7812b" d="M 184.5,125.5 C 196.579,126.499 199.912,132.332 194.5,143C 184.873,142.364 180.707,137.197 182,127.5C 182.995,126.934 183.828,126.267 184.5,125.5 Z"/></g>
<g><path style="opacity:0.012" fill="#faedc9" d="M 82.5,139.5 C 83.9217,139.709 85.255,140.209 86.5,141C 86.1667,141.333 85.8333,141.667 85.5,142C 88.3484,145.893 88.0151,149.393 84.5,152.5C 86.2491,147.739 85.5824,143.406 82.5,139.5 Z"/></g>
<g><path style="opacity:1" fill="#d9812b" d="M 163.5,188.5 C 145.541,188.528 137.874,179.528 140.5,161.5C 149.452,154.88 158.286,155.213 167,162.5C 173.698,172.253 172.531,180.92 163.5,188.5 Z"/></g>
<g><path style="opacity:1" fill="#956721" d="M 136.5,182.5 C 143.577,193.34 152.577,195.34 163.5,188.5C 172.531,180.92 173.698,172.253 167,162.5C 158.286,155.213 149.452,154.88 140.5,161.5C 135.645,166.767 133.645,173.1 134.5,180.5C 131.277,169.362 134.944,161.195 145.5,156C 164.673,153.177 173.506,161.343 172,180.5C 166.713,192.395 157.879,196.562 145.5,193C 141.195,190.535 138.195,187.035 136.5,182.5 Z"/></g>
<g><path style="opacity:1" fill="#a46921" d="M 325.5,159.5 C 332.108,162.804 334.275,168.137 332,175.5C 324.592,183.446 317.259,183.446 310,175.5C 306.55,165.396 310.05,159.396 320.5,157.5C 322.557,157.436 324.223,158.102 325.5,159.5 Z"/></g>
<g><path style="opacity:1" fill="#d8812b" d="M 325.5,159.5 C 330.677,163.847 331.844,169.181 329,175.5C 326.104,177.745 322.937,178.078 319.5,176.5C 317.833,174.5 316.167,172.5 314.5,170.5C 313.447,167.185 313.447,163.852 314.5,160.5C 318.119,159.756 321.785,159.423 325.5,159.5 Z"/></g>
<g><path style="opacity:1" fill="#a25d1d" d="M 140.5,161.5 C 137.874,179.528 145.541,188.528 163.5,188.5C 152.577,195.34 143.577,193.34 136.5,182.5C 135.833,181.833 135.167,181.167 134.5,180.5C 133.645,173.1 135.645,166.767 140.5,161.5 Z"/></g>
<g><path style="opacity:1" fill="#a36720" d="M 274.5,197.5 C 266.997,196.853 264.497,200.186 267,207.5C 269.145,213.416 272.811,214.749 278,211.5C 279.337,207.974 279.837,204.308 279.5,200.5C 282.832,206.904 281.499,212.404 275.5,217C 272.446,217.821 269.446,217.655 266.5,216.5C 264.476,214.31 262.643,211.977 261,209.5C 260.133,199.192 264.633,195.192 274.5,197.5 Z"/></g>
<g><path style="opacity:1" fill="#d47f2a" d="M 274.5,197.5 C 276.411,198.075 278.078,199.075 279.5,200.5C 279.837,204.308 279.337,207.974 278,211.5C 272.811,214.749 269.145,213.416 267,207.5C 264.497,200.186 266.997,196.853 274.5,197.5 Z"/></g>
<g><path style="opacity:1" fill="#d8812b" d="M 238.5,212.5 C 240.027,212.427 241.027,213.094 241.5,214.5C 249.52,225.709 247.853,235.042 236.5,242.5C 223.826,239.515 218.993,231.515 222,218.5C 222.883,215.898 224.383,213.731 226.5,212C 230.524,211.503 234.524,211.669 238.5,212.5 Z"/></g>
<g><path style="opacity:1" fill="#b37c28" d="M 241.5,214.5 C 244.552,215.88 246.718,218.214 248,221.5C 248.879,226.838 248.379,232.004 246.5,237C 243.536,239.81 240.202,241.976 236.5,243.5C 236.5,243.167 236.5,242.833 236.5,242.5C 247.853,235.042 249.52,225.709 241.5,214.5 Z"/></g>
<g><path style="opacity:0.137" fill="#fefaf0" d="M 95.5,217.5 C 97.654,221.903 96.3207,224.569 91.5,225.5C 89.9704,225.36 88.9704,224.693 88.5,223.5C 93.3394,224.323 95.6728,222.323 95.5,217.5 Z"/></g>
<g><path style="opacity:1" fill="#a0611e" d="M 238.5,212.5 C 234.524,211.669 230.524,211.503 226.5,212C 224.383,213.731 222.883,215.898 222,218.5C 218.993,231.515 223.826,239.515 236.5,242.5C 236.5,242.833 236.5,243.167 236.5,243.5C 228.692,246.738 222.192,244.738 217,237.5C 212.301,229.376 212.801,221.543 218.5,214C 224.418,210.669 230.751,209.669 237.5,211C 238.056,211.383 238.389,211.883 238.5,212.5 Z"/></g>
<g><path style="opacity:1" fill="#9e651f" d="M 125.5,233.5 C 126.902,238.403 130.069,241.403 135,242.5C 139.933,242.201 141.766,239.535 140.5,234.5C 142.459,244.868 138.126,248.868 127.5,246.5C 123.911,243.229 122.744,239.229 124,234.5C 124.383,233.944 124.883,233.611 125.5,233.5 Z"/></g>
<g><path style="opacity:1" fill="#cf7f29" d="M 140.5,234.5 C 141.766,239.535 139.933,242.201 135,242.5C 130.069,241.403 126.902,238.403 125.5,233.5C 126.348,230.155 128.515,228.488 132,228.5C 136.351,228.42 139.184,230.42 140.5,234.5 Z"/></g>
<g><path style="opacity:0.392" fill="#fef5dc" d="M 273.5,233.5 C 271.174,238.667 272.508,242.334 277.5,244.5C 276.399,245.598 275.066,245.765 273.5,245C 269.612,240.972 269.612,237.139 273.5,233.5 Z"/></g>
<g><path style="opacity:1" fill="#a56a21" d="M 99.5,253.5 C 108.478,251.546 115.645,254.212 121,261.5C 122.483,264.702 122.817,268.036 122,271.5C 119.917,275.257 117.417,278.757 114.5,282C 109.924,283.476 105.257,283.81 100.5,283C 98,280.5 95.5,278 93,275.5C 89.3978,266.308 91.5644,258.974 99.5,253.5 Z"/></g>
<g><path style="opacity:1" fill="#d8812b" d="M 101.5,255.5 C 108.55,254.297 114.383,256.297 119,261.5C 122.113,274.421 116.947,279.588 103.5,277C 97.5444,273.154 95.0444,267.654 96,260.5C 97.8119,258.7 99.6452,257.033 101.5,255.5 Z"/></g>
<g><path style="opacity:1" fill="#d5812b" d="M 254.5,307.5 C 250.688,306.676 246.688,306.176 242.5,306C 239.833,304 237.167,302 234.5,300C 232.559,296.093 232.225,292.093 233.5,288C 232.906,287.536 232.239,287.369 231.5,287.5C 237.959,280.47 245.293,279.637 253.5,285C 259.779,292.274 260.112,299.774 254.5,307.5 Z"/></g>
<g><path style="opacity:1" fill="#a2621e" d="M 231.5,287.5 C 232.239,287.369 232.906,287.536 233.5,288C 232.225,292.093 232.559,296.093 234.5,300C 237.167,302 239.833,304 242.5,306C 246.688,306.176 250.688,306.676 254.5,307.5C 248.085,313.597 241.085,314.097 233.5,309C 228.482,302.848 227.315,296.015 230,288.5C 230.383,287.944 230.883,287.611 231.5,287.5 Z"/></g>
<g><path style="opacity:1" fill="#a86e22" d="M 200.5,277.5 C 211.232,276.558 215.566,281.224 213.5,291.5C 210.331,296.118 205.998,297.618 200.5,296C 193.933,289.956 193.933,283.79 200.5,277.5 Z"/></g>
<g><path style="opacity:1" fill="#d6802a" d="M 202.5,279.5 C 209.937,279.274 213.27,282.941 212.5,290.5C 209.223,290.784 206.057,290.451 203,289.5C 199.971,286.23 199.804,282.897 202.5,279.5 Z"/></g>
<g><path style="opacity:1" fill="#a86e22" d="M 124.5,291.5 C 134.735,290.232 138.902,294.565 137,304.5C 130.96,312.798 125.46,312.465 120.5,303.5C 119.353,301.235 119.186,298.902 120,296.5C 121.366,294.638 122.866,292.972 124.5,291.5 Z"/></g>
<g><path style="opacity:1" fill="#d7802a" d="M 124.5,294.5 C 127.85,294.335 131.183,294.502 134.5,295C 138.684,302.444 136.684,305.444 128.5,304C 124.875,301.593 123.542,298.426 124.5,294.5 Z"/></g>
<g><path style="opacity:0.42" fill="#fef1c5" d="M 284.5,318.5 C 284.308,324.132 286.641,328.132 291.5,330.5C 290.749,331.573 289.749,331.74 288.5,331C 284.342,327.564 283.008,323.398 284.5,318.5 Z"/></g>
<g><path style="opacity:1" fill="#d3832b" d="M 273.5,346.5 C 266.285,346.445 262.285,342.778 261.5,335.5C 262.378,332.713 264.378,331.38 267.5,331.5C 278.163,333.305 280.163,338.305 273.5,346.5 Z"/></g>
<g><path style="opacity:1" fill="#a96920" d="M 261.5,335.5 C 262.285,342.778 266.285,346.445 273.5,346.5C 267.63,350.098 263.13,348.765 260,342.5C 259.333,340.5 259.333,338.5 260,336.5C 260.383,335.944 260.883,335.611 261.5,335.5 Z"/></g>
</svg>
