<?xml version="1.0" encoding="UTF-8"?>
<!DOCTYPE svg PUBLIC "-//W3C//DTD SVG 1.1//EN" "http://www.w3.org/Graphics/SVG/1.1/DTD/svg11.dtd">
<svg xmlns="http://www.w3.org/2000/svg" version="1.1" width="500px" height="500px" style="shape-rendering:geometricPrecision; text-rendering:geometricPrecision; image-rendering:optimizeQuality; fill-rule:evenodd; clip-rule:evenodd" xmlns:xlink="http://www.w3.org/1999/xlink">
<g><path style="opacity:1" fill="#fefefe" d="M -0.5,-0.5 C 166.167,-0.5 332.833,-0.5 499.5,-0.5C 499.5,166.167 499.5,332.833 499.5,499.5C 332.833,499.5 166.167,499.5 -0.5,499.5C -0.5,332.833 -0.5,166.167 -0.5,-0.5 Z"/></g>
<g><path style="opacity:1" fill="#f8cd43" d="M 290.5,63.5 C 295.677,62.7031 300.177,64.0364 304,67.5C 310.636,82.1095 318.303,96.1095 327,109.5C 331.037,114.102 335.871,117.602 341.5,120C 344.743,123.821 347.743,127.821 350.5,132C 362.256,138.088 370.923,147.088 376.5,159C 382.913,161.731 389.579,163.731 396.5,165C 401.081,166.871 405.248,169.371 409,172.5C 409.667,174.5 409.667,176.5 409,178.5C 400.452,187.048 393.452,196.715 388,207.5C 381.979,214.856 374.146,218.023 364.5,217C 362.999,218.252 361.332,219.252 359.5,220C 354.5,225.667 349.5,231.333 344.5,237C 337.517,240.747 331.351,245.581 326,251.5C 325.34,254.534 325.84,257.367 327.5,260C 333.693,258.654 340.026,258.321 346.5,259C 355.565,261.681 356.732,266.181 350,272.5C 349.667,278.167 349.333,283.833 349,289.5C 347.113,293.244 344.113,295.577 340,296.5C 338.685,302.3 337.518,308.133 336.5,314C 337.088,320.827 337.588,327.66 338,334.5C 338.471,336.246 339.138,337.913 340,339.5C 342.74,340.282 345.574,340.782 348.5,341C 350.286,341.785 351.786,342.951 353,344.5C 356.285,361.715 349.451,368.048 332.5,363.5C 327.528,364.98 322.528,366.48 317.5,368C 308.067,369.879 299.4,368.212 291.5,363C 286.167,356.667 280.833,350.333 275.5,344C 254.553,331.615 236.387,334.782 221,353.5C 220.975,356.917 220.808,360.25 220.5,363.5C 213.873,365.354 207.706,364.354 202,360.5C 200.5,355.292 199,350.126 197.5,345C 191.61,343.755 185.61,343.088 179.5,343C 173.116,337.615 166.45,332.615 159.5,328C 152.833,327.667 146.167,327.333 139.5,327C 134.523,322.354 129.856,317.354 125.5,312C 119.658,308.489 114.825,303.989 111,298.5C 110.254,295.211 111.42,292.711 114.5,291C 120.412,289.462 125.245,286.295 129,281.5C 137.742,269.347 144.909,256.347 150.5,242.5C 149.446,239.199 148.946,235.865 149,232.5C 150.183,231.269 151.349,231.269 152.5,232.5C 153.948,234.667 155.115,237 156,239.5C 160.162,241.17 162.662,239.837 163.5,235.5C 159.761,222.731 158.595,209.731 160,196.5C 152.37,191.573 148.703,184.573 149,175.5C 156.441,171.307 157.274,166.14 151.5,160C 148.761,158.826 146.761,156.993 145.5,154.5C 145.781,152.222 147.115,151.055 149.5,151C 154.067,148.618 154.4,145.951 150.5,143C 139.825,139.49 132.159,132.656 127.5,122.5C 123.206,121.355 119.539,119.188 116.5,116C 114.19,115.503 111.857,115.337 109.5,115.5C 109.336,112.813 109.503,110.146 110,107.5C 110.739,106.426 111.739,105.759 113,105.5C 114.626,106.289 116.126,107.289 117.5,108.5C 118.634,104.363 118.134,100.363 116,96.5C 109.993,93.5012 110.16,90.8345 116.5,88.5C 120.085,91.1242 124.085,92.9575 128.5,94C 136.343,93.91 144.009,94.91 151.5,97C 155.683,100.901 157.517,105.735 157,111.5C 157.5,112 158,112.5 158.5,113C 165.161,112.88 171.827,112.88 178.5,113C 182.092,115.259 184.926,118.092 187,121.5C 188.261,121.241 189.261,120.574 190,119.5C 190.748,113.468 190.581,107.468 189.5,101.5C 190.833,99.5 192.167,97.5 193.5,95.5C 191.988,93.1387 190.654,90.6387 189.5,88C 190.958,84.2762 193.625,82.6095 197.5,83C 199.769,85.3622 200.102,88.0288 198.5,91C 199.101,92.605 200.101,93.9384 201.5,95C 205.5,96 209.5,97 213.5,98C 217.466,102.81 222.133,106.644 227.5,109.5C 229.697,109.152 231.53,108.152 233,106.5C 233.333,103.5 233.667,100.5 234,97.5C 235.214,95.9512 236.714,94.7845 238.5,94C 247.833,93.6667 257.167,93.3333 266.5,93C 270.281,90.7754 274.281,89.1087 278.5,88C 280.952,82.7864 282.786,77.2864 284,71.5C 285.479,68.1725 287.645,65.5058 290.5,63.5 Z"/></g>
<g><path style="opacity:1" fill="#d4822b" d="M 147.5,115.5 C 141.281,116.918 137.947,114.584 137.5,108.5C 140.664,104.945 143.997,104.779 147.5,108C 148.814,110.605 148.814,113.105 147.5,115.5 Z"/></g>
<g><path style="opacity:1" fill="#cd822a" d="M 275.5,114.5 C 269.053,115.549 265.22,112.882 264,106.5C 263.503,108.81 263.337,111.143 263.5,113.5C 260.617,109.295 261.284,105.462 265.5,102C 270.437,100.631 274.604,101.797 278,105.5C 279.07,109.142 278.236,112.142 275.5,114.5 Z"/></g>
<g><path style="opacity:1" fill="#aa6b21" d="M 137.5,108.5 C 137.947,114.584 141.281,116.918 147.5,115.5C 143.729,119.696 140.229,119.363 137,114.5C 136.322,112.402 136.489,110.402 137.5,108.5 Z"/></g>
<g><path style="opacity:1" fill="#a0601d" d="M 275.5,114.5 C 271.113,118.769 267.113,118.435 263.5,113.5C 263.337,111.143 263.503,108.81 264,106.5C 265.22,112.882 269.053,115.549 275.5,114.5 Z"/></g>
<g><path style="opacity:1" fill="#a0621e" d="M 310.5,133.5 C 315.185,139.521 313.851,144.021 306.5,147C 298.542,146.69 295.375,142.523 297,134.5C 299.955,130.723 303.788,129.557 308.5,131C 309.381,131.708 310.047,132.542 310.5,133.5 Z"/></g>
<g><path style="opacity:1" fill="#d7802a" d="M 310.5,133.5 C 311.724,136.505 311.724,139.505 310.5,142.5C 306.805,144.186 303.971,143.186 302,139.5C 301.503,136.854 301.336,134.187 301.5,131.5C 304.692,131.405 307.692,132.071 310.5,133.5 Z"/></g>
<g><path style="opacity:1" fill="#7b531a" d="M 251.5,147.5 C 248.794,147.575 246.127,147.908 243.5,148.5C 245.993,146.416 248.66,146.083 251.5,147.5 Z"/></g>
<g><path style="opacity:1" fill="#d9822b" d="M 251.5,147.5 C 258.221,151.096 259.888,156.262 256.5,163C 254.19,163.497 251.857,163.663 249.5,163.5C 244.268,160.357 242.268,155.69 243.5,149.5C 243.5,149.167 243.5,148.833 243.5,148.5C 246.127,147.908 248.794,147.575 251.5,147.5 Z"/></g>
<g><path style="opacity:1" fill="#d6812b" d="M 181.5,160.5 C 172.197,160.89 169.197,156.89 172.5,148.5C 181.025,146.183 184.859,149.517 184,158.5C 183.292,159.381 182.458,160.047 181.5,160.5 Z"/></g>
<g><path style="opacity:1" fill="#d9812b" d="M 337.5,149.5 C 338.492,149.328 339.158,149.662 339.5,150.5C 347.421,157.962 347.421,165.462 339.5,173C 327.105,172.435 322.271,165.935 325,153.5C 325.5,151.667 326.667,150.5 328.5,150C 331.482,149.502 334.482,149.335 337.5,149.5 Z"/></g>
<g><path style="opacity:1" fill="#9e611e" d="M 337.5,149.5 C 334.482,149.335 331.482,149.502 328.5,150C 326.667,150.5 325.5,151.667 325,153.5C 322.271,165.935 327.105,172.435 339.5,173C 347.421,165.462 347.421,157.962 339.5,150.5C 345.431,153.708 347.597,158.708 346,165.5C 342.548,174.719 336.048,177.719 326.5,174.5C 318.294,169.229 316.461,162.229 321,153.5C 325.766,148.686 331.266,147.352 337.5,149.5 Z"/></g>
<g><path style="opacity:1" fill="#a4651f" d="M 172.5,148.5 C 169.197,156.89 172.197,160.89 181.5,160.5C 177.787,164.473 173.953,164.473 170,160.5C 168.101,156.864 168.101,153.197 170,149.5C 170.671,148.748 171.504,148.414 172.5,148.5 Z"/></g>
<g><path style="opacity:1" fill="#88551b" d="M 251.5,147.5 C 258.398,149.62 260.898,154.287 259,161.5C 254.672,168.696 248.838,170.196 241.5,166C 237.067,161.183 236.567,156.016 240,150.5C 240.816,149.177 241.983,148.511 243.5,148.5C 243.5,148.833 243.5,149.167 243.5,149.5C 239.76,152.599 238.593,156.599 240,161.5C 242.638,166.802 245.805,167.469 249.5,163.5C 251.857,163.663 254.19,163.497 256.5,163C 259.888,156.262 258.221,151.096 251.5,147.5 Z"/></g>
<g><path style="opacity:1" fill="#a35d1c" d="M 243.5,149.5 C 242.268,155.69 244.268,160.357 249.5,163.5C 245.805,167.469 242.638,166.802 240,161.5C 238.593,156.599 239.76,152.599 243.5,149.5 Z"/></g>
<g><path style="opacity:1" fill="#d9812b" d="M 213.5,175.5 C 221.72,175.442 228.054,178.775 232.5,185.5C 233.272,189.452 233.605,193.452 233.5,197.5C 233.598,199.553 232.931,201.22 231.5,202.5C 219.606,209.48 210.773,206.48 205,193.5C 204.118,188.647 204.618,183.981 206.5,179.5C 206.5,179.167 206.5,178.833 206.5,178.5C 209.018,177.736 211.351,176.736 213.5,175.5 Z"/></g>
<g><path style="opacity:1" fill="#7f571c" d="M 213.5,175.5 C 218.316,174.357 222.983,175.19 227.5,178C 230.2,179.857 231.866,182.357 232.5,185.5C 228.054,178.775 221.72,175.442 213.5,175.5 Z"/></g>
<g><path style="opacity:1" fill="#774f19" d="M 213.5,175.5 C 211.351,176.736 209.018,177.736 206.5,178.5C 208.176,176.166 210.509,175.166 213.5,175.5 Z"/></g>
<g><path style="opacity:1" fill="#a15d1c" d="M 206.5,179.5 C 204.618,183.981 204.118,188.647 205,193.5C 210.773,206.48 219.606,209.48 231.5,202.5C 230.833,205.167 229.167,206.833 226.5,207.5C 221.348,209.43 216.014,209.93 210.5,209C 208.413,208.208 206.579,207.041 205,205.5C 204.383,204.551 204.549,203.718 205.5,203C 204.491,200.828 202.824,199.662 200.5,199.5C 201.561,195.649 201.561,191.815 200.5,188C 201.411,184.326 203.411,181.493 206.5,179.5 Z"/></g>
<g><path style="opacity:1" fill="#86531a" d="M 206.5,178.5 C 206.5,178.833 206.5,179.167 206.5,179.5C 203.411,181.493 201.411,184.326 200.5,188C 201.561,191.815 201.561,195.649 200.5,199.5C 202.824,199.662 204.491,200.828 205.5,203C 204.549,203.718 204.383,204.551 205,205.5C 206.579,207.041 208.413,208.208 210.5,209C 216.014,209.93 221.348,209.43 226.5,207.5C 217.715,213.238 209.548,212.238 202,204.5C 197.333,196.833 197.333,189.167 202,181.5C 203.129,179.859 204.629,178.859 206.5,178.5 Z"/></g>
<g><path style="opacity:1" fill="#664416" d="M 232.5,185.5 C 234.017,187.462 234.684,189.795 234.5,192.5C 234.493,194.369 234.16,196.036 233.5,197.5C 233.605,193.452 233.272,189.452 232.5,185.5 Z"/></g>
<g><path style="opacity:1" fill="#a4641f" d="M 377.5,180.5 C 384.925,184.609 386.258,190.276 381.5,197.5C 374.699,203.268 368.532,202.601 363,195.5C 359.988,188.017 362.154,182.517 369.5,179C 372.538,178.115 375.205,178.615 377.5,180.5 Z"/></g>
<g><path style="opacity:1" fill="#d9812b" d="M 377.5,180.5 C 378.458,181.962 379.624,183.295 381,184.5C 381.06,188.321 381.06,191.987 381,195.5C 378.53,197.487 375.697,197.987 372.5,197C 366.393,192.716 365.06,187.383 368.5,181C 371.482,180.502 374.482,180.335 377.5,180.5 Z"/></g>
<g><path style="opacity:1" fill="#d57f2a" d="M 329.5,215.5 C 331.404,215.738 332.738,216.738 333.5,218.5C 336.077,224.732 334.41,229.066 328.5,231.5C 326.563,230.069 324.73,228.402 323,226.5C 322.503,223.854 322.336,221.187 322.5,218.5C 324.036,215.908 326.369,214.908 329.5,215.5 Z"/></g>
<g><path style="opacity:1" fill="#996821" d="M 329.5,215.5 C 326.369,214.908 324.036,215.908 322.5,218.5C 321.417,218.539 320.417,218.873 319.5,219.5C 316.857,228.309 319.857,232.309 328.5,231.5C 334.41,229.066 336.077,224.732 333.5,218.5C 337.282,222.245 337.449,226.245 334,230.5C 330.276,233.24 326.109,234.074 321.5,233C 314.833,227 314.833,221 321.5,215C 324.367,214.199 327.034,214.366 329.5,215.5 Z"/></g>
<g><path style="opacity:1" fill="#a25d1c" d="M 322.5,218.5 C 322.336,221.187 322.503,223.854 323,226.5C 324.73,228.402 326.563,230.069 328.5,231.5C 319.857,232.309 316.857,228.309 319.5,219.5C 320.417,218.873 321.417,218.539 322.5,218.5 Z"/></g>
<g><path style="opacity:1" fill="#9e631f" d="M 203.5,248.5 C 206.778,253.844 205.444,258.01 199.5,261C 197.5,261.667 195.5,261.667 193.5,261C 187.222,256.05 186.889,250.717 192.5,245C 195.167,244.333 197.833,244.333 200.5,245C 202.426,245.422 203.426,246.589 203.5,248.5 Z"/></g>
<g><path style="opacity:1" fill="#d7802a" d="M 203.5,248.5 C 203.5,251.167 203.5,253.833 203.5,256.5C 196.758,258.243 192.758,255.743 191.5,249C 192.197,246.472 193.864,245.306 196.5,245.5C 199.218,245.695 201.551,246.695 203.5,248.5 Z"/></g>
<g><path style="opacity:1" fill="#a0621e" d="M 297.5,230.5 C 300.822,231.658 302.988,233.992 304,237.5C 306.437,249.97 301.437,257.304 289,259.5C 278.598,258.597 273.098,252.931 272.5,242.5C 274.55,229.983 281.883,225.15 294.5,228C 295.942,228.377 296.942,229.21 297.5,230.5 Z"/></g>
<g><path style="opacity:1" fill="#d9812b" d="M 297.5,230.5 C 305.765,239.298 305.432,247.798 296.5,256C 286.406,256.919 280.74,252.252 279.5,242C 279.661,229.004 285.661,225.171 297.5,230.5 Z"/></g>
<g><path style="opacity:1" fill="#9e601e" d="M 166.5,267.5 C 174.077,264.524 180.244,266.524 185,273.5C 188.316,287.512 182.816,294.346 168.5,294C 158.439,289.04 155.939,281.54 161,271.5C 162.451,269.536 164.284,268.203 166.5,267.5 Z"/></g>
<g><path style="opacity:1" fill="#d9812b" d="M 166.5,267.5 C 181.783,266.316 187.116,272.816 182.5,287C 170.724,291.608 163.724,287.608 161.5,275C 162.546,272.114 164.213,269.614 166.5,267.5 Z"/></g>
<g><path style="opacity:1" fill="#d27e29" d="M 267.5,291.5 C 272.347,293.431 273.68,296.764 271.5,301.5C 266.874,303.483 263.04,302.483 260,298.5C 258.393,292.082 260.893,289.749 267.5,291.5 Z"/></g>
<g><path style="opacity:1" fill="#9c5f1d" d="M 267.5,291.5 C 260.893,289.749 258.393,292.082 260,298.5C 263.04,302.483 266.874,303.483 271.5,301.5C 269.517,306.492 265.85,308.325 260.5,307C 254.222,302.05 253.889,296.717 259.5,291C 262.367,290.199 265.034,290.366 267.5,291.5 Z"/></g>
<g><path style="opacity:1" fill="#d8812b" d="M 305.5,295.5 C 312.474,300.551 314.308,307.218 311,315.5C 299.109,320.3 291.942,316.3 289.5,303.5C 289.667,302.5 289.833,301.5 290,300.5C 291.707,298.963 293.207,297.296 294.5,295.5C 298.167,294.167 301.833,294.167 305.5,295.5 Z"/></g>
<g><path style="opacity:1" fill="#d5802a" d="M 199.5,305.5 C 199.238,308.252 199.238,311.252 199.5,314.5C 191.902,314.873 187.902,311.54 187.5,304.5C 188.492,302.974 189.992,302.307 192,302.5C 194.956,302.568 197.456,303.568 199.5,305.5 Z"/></g>
<g><path style="opacity:1" fill="#9f621e" d="M 294.5,295.5 C 293.207,297.296 291.707,298.963 290,300.5C 289.833,301.5 289.667,302.5 289.5,303.5C 291.942,316.3 299.109,320.3 311,315.5C 314.308,307.218 312.474,300.551 305.5,295.5C 312.76,298.347 315.593,303.68 314,311.5C 311.916,318.746 307.083,322.413 299.5,322.5C 292.485,321.99 287.985,318.324 286,311.5C 284.369,303.76 287.203,298.427 294.5,295.5 Z"/></g>
<g><path style="opacity:1" fill="#9c5f1d" d="M 187.5,304.5 C 187.902,311.54 191.902,314.873 199.5,314.5C 199.238,311.252 199.238,308.252 199.5,305.5C 202.892,312.978 200.559,317.645 192.5,319.5C 185.664,317.918 183.164,313.585 185,306.5C 185.708,305.619 186.542,304.953 187.5,304.5 Z"/></g>
<g><path style="opacity:1" fill="#d6812b" d="M 329.5,352.5 C 321.069,355.401 316.735,352.401 316.5,343.5C 321.099,339.407 325.599,339.74 330,344.5C 330.722,347.261 330.555,349.927 329.5,352.5 Z"/></g>
<g><path style="opacity:1" fill="#a3641e" d="M 316.5,343.5 C 316.735,352.401 321.069,355.401 329.5,352.5C 326.287,356.65 322.287,357.483 317.5,355C 314.075,351.251 313.741,347.418 316.5,343.5 Z"/></g>
<g><path style="opacity:1" fill="#666364" d="M 154.5,395.5 C 160.645,394.51 166.978,394.177 173.5,394.5C 173.5,396.167 173.5,397.833 173.5,399.5C 171.167,399.5 168.833,399.5 166.5,399.5C 168.265,398.539 170.265,398.205 172.5,398.5C 172.5,397.5 172.5,396.5 172.5,395.5C 166.5,395.5 160.5,395.5 154.5,395.5 Z"/></g>
<g><path style="opacity:1" fill="#2c2829" d="M 218.5,411.5 C 217.432,410.566 216.099,410.232 214.5,410.5C 214.5,414.167 214.5,417.833 214.5,421.5C 212.833,421.5 211.167,421.5 209.5,421.5C 209.5,412.5 209.5,403.5 209.5,394.5C 213.846,394.334 218.179,394.501 222.5,395C 227.143,397.072 228.643,400.572 227,405.5C 226.028,407.305 224.861,408.972 223.5,410.5C 225.167,413.833 226.833,417.167 228.5,420.5C 226.5,421.833 224.5,421.833 222.5,420.5C 221.427,417.356 220.093,414.356 218.5,411.5 Z"/></g>
<g><path style="opacity:1" fill="#2a2627" d="M 239.5,394.5 C 243.514,394.334 247.514,394.501 251.5,395C 255.973,396.774 257.806,399.94 257,404.5C 255.596,406.394 254.43,408.394 253.5,410.5C 254.763,414.192 256.43,417.692 258.5,421C 256.5,421.667 254.5,421.667 252.5,421C 251.311,418.122 249.978,415.288 248.5,412.5C 247.311,411.571 245.978,411.238 244.5,411.5C 244.5,414.833 244.5,418.167 244.5,421.5C 242.833,421.5 241.167,421.5 239.5,421.5C 239.5,412.5 239.5,403.5 239.5,394.5 Z"/></g>
<g><path style="opacity:1" fill="#2b2728" d="M 276.5,394.5 C 292.321,394.497 297.487,401.831 292,416.5C 287.426,421.15 281.926,422.65 275.5,421C 268.558,417.2 266.058,411.367 268,403.5C 269.688,399.315 272.521,396.315 276.5,394.5 Z"/></g>
<g><path style="opacity:1" fill="#322e2f" d="M 324.5,394.5 C 328.846,394.334 333.179,394.501 337.5,395C 342.224,397.435 343.724,401.269 342,406.5C 340.833,407.667 339.667,408.833 338.5,410C 340.067,413.525 341.733,417.025 343.5,420.5C 341.926,421.631 340.259,421.798 338.5,421C 336.467,418.104 335.134,414.937 334.5,411.5C 333.167,411.5 331.833,411.5 330.5,411.5C 330.5,414.833 330.5,418.167 330.5,421.5C 328.5,421.5 326.5,421.5 324.5,421.5C 324.5,412.5 324.5,403.5 324.5,394.5 Z"/></g>
<g><path style="opacity:1" fill="#242021" d="M 154.5,395.5 C 160.5,395.5 166.5,395.5 172.5,395.5C 172.5,396.5 172.5,397.5 172.5,398.5C 170.265,398.205 168.265,398.539 166.5,399.5C 166.5,406.833 166.5,414.167 166.5,421.5C 164.833,421.5 163.167,421.5 161.5,421.5C 161.5,414.167 161.5,406.833 161.5,399.5C 159.167,399.5 156.833,399.5 154.5,399.5C 154.5,398.167 154.5,396.833 154.5,395.5 Z"/></g>
<g><path style="opacity:1" fill="#2a2627" d="M 183.5,394.5 C 188.167,394.5 192.833,394.5 197.5,394.5C 197.5,396.167 197.5,397.833 197.5,399.5C 194.5,399.5 191.5,399.5 188.5,399.5C 188.5,401.167 188.5,402.833 188.5,404.5C 190.833,404.5 193.167,404.5 195.5,404.5C 195.5,406.167 195.5,407.833 195.5,409.5C 193.167,409.5 190.833,409.5 188.5,409.5C 188.5,411.833 188.5,414.167 188.5,416.5C 191.833,416.5 195.167,416.5 198.5,416.5C 198.5,418.167 198.5,419.833 198.5,421.5C 193.5,421.5 188.5,421.5 183.5,421.5C 183.5,412.5 183.5,403.5 183.5,394.5 Z"/></g>
<g><path style="opacity:1" fill="#9c9a9a" d="M 311.5,395.5 C 309.833,395.5 308.167,395.5 306.5,395.5C 306.5,404.167 306.5,412.833 306.5,421.5C 305.507,412.682 305.173,403.682 305.5,394.5C 307.735,394.205 309.735,394.539 311.5,395.5 Z"/></g>
<g><path style="opacity:1" fill="#221f1f" d="M 311.5,395.5 C 311.5,404.167 311.5,412.833 311.5,421.5C 309.833,421.5 308.167,421.5 306.5,421.5C 306.5,412.833 306.5,404.167 306.5,395.5C 308.167,395.5 309.833,395.5 311.5,395.5 Z"/></g>
<g><path style="opacity:1" fill="#e9e9e9" d="M 214.5,399.5 C 216.857,399.337 219.19,399.503 221.5,400C 222.833,402 222.833,404 221.5,406C 219.19,406.497 216.857,406.663 214.5,406.5C 214.5,404.167 214.5,401.833 214.5,399.5 Z"/></g>
<g><path style="opacity:1" fill="#f5f5f5" d="M 244.5,399.5 C 246.527,399.338 248.527,399.505 250.5,400C 253.167,402 253.167,404 250.5,406C 248.527,406.495 246.527,406.662 244.5,406.5C 244.5,404.167 244.5,401.833 244.5,399.5 Z"/></g>
<g><path style="opacity:1" fill="#f7f7f7" d="M 277.5,399.5 C 286.649,399.156 290.149,403.489 288,412.5C 287.535,413.931 286.701,415.097 285.5,416C 275.889,418.055 271.722,414.221 273,404.5C 274.059,402.341 275.559,400.674 277.5,399.5 Z"/></g>
<g><path style="opacity:1" fill="#fafafa" d="M 330.5,399.5 C 336.662,398.156 338.662,400.322 336.5,406C 334.527,406.495 332.527,406.662 330.5,406.5C 330.5,404.167 330.5,401.833 330.5,399.5 Z"/></g>
<g><path style="opacity:1" fill="#888686" d="M 218.5,411.5 C 217.5,411.5 216.5,411.5 215.5,411.5C 215.813,415.042 215.479,418.375 214.5,421.5C 214.5,417.833 214.5,414.167 214.5,410.5C 216.099,410.232 217.432,410.566 218.5,411.5 Z"/></g>
</svg>
